<?xml version="1.0" standalone="no"?>
<!DOCTYPE svg PUBLIC "-//W3C//DTD SVG 20010904//EN"
 "http://www.w3.org/TR/2001/REC-SVG-20010904/DTD/svg10.dtd">
<svg version="1.0" xmlns="http://www.w3.org/2000/svg"
 width="235.000000pt" height="71.000000pt" viewBox="0 0 235.000000 71.000000"
 preserveAspectRatio="xMidYMid meet">

<g transform="translate(0.000000,71.000000) scale(0.100000,-0.100000)"
fill="#000000" stroke="none">
<path d="M680 429 l0 -161 29 -29 c30 -30 51 -37 51 -18 0 5 -4 8 -9 4 -5 -3
-13 0 -17 7 -4 7 -4 10 1 6 4 -4 14 -3 22 4 8 6 13 7 12 2 -3 -18 1 -34 9 -34
5 0 9 13 10 30 1 25 -3 30 -24 30 l-24 0 0 160 0 160 -30 0 -30 0 0 -161z"/>
<path d="M1470 565 c0 -21 5 -25 30 -25 25 0 30 4 30 25 0 21 -5 25 -30 25
-25 0 -30 -4 -30 -25z"/>
<path d="M1644 578 c-37 -18 -44 -51 -44 -213 0 -138 7 -182 23 -142 4 9 6 9
6 0 1 -7 8 -13 16 -13 12 0 15 27 17 158 l3 157 83 3 82 3 0 29 0 30 -82 -1
c-46 0 -93 -5 -104 -11z"/>
<path d="M289 534 c-23 -24 -24 -32 -24 -148 0 -113 2 -123 23 -146 21 -23 30
-24 155 -28 125 -4 131 -3 112 13 -19 16 -18 16 8 1 15 -9 32 -14 37 -11 6 3
10 49 10 101 l0 94 -115 0 -115 0 0 -25 c0 -24 2 -24 88 -27 l87 -3 0 -44 0
-44 -109 1 c-60 0 -113 5 -118 10 -5 5 -7 56 -6 113 l3 104 143 3 142 3 0 29
0 30 -148 0 c-147 0 -149 0 -173 -26z m65 -299 c4 -13 2 -14 -14 -5 -23 13
-26 20 -6 20 8 0 16 -7 20 -15z"/>
<path d="M865 445 c-22 -21 -25 -33 -25 -104 0 -75 1 -80 29 -104 25 -21 40
-24 103 -25 44 -1 65 2 54 7 -19 7 -19 8 2 13 15 4 22 2 22 -8 0 -8 5 -14 11
-14 5 0 7 4 4 10 -3 5 0 7 8 4 9 -3 24 6 36 22 40 50 23 200 -24 218 -9 3 -57
6 -106 6 -82 0 -92 -2 -114 -25z m189 -31 c12 -5 16 -21 16 -74 l0 -68 -81 -4
c-44 -2 -84 1 -90 6 -15 17 -11 113 7 130 16 16 115 23 148 10z m-129 -173
c-9 -8 -36 -10 -30 -2 2 4 11 8 20 8 8 0 13 -3 10 -6z"/>
<path d="M1219 451 c-22 -18 -24 -28 -27 -130 -4 -108 -3 -111 18 -111 12 0
18 4 15 10 -3 6 1 7 9 4 14 -5 16 7 16 89 0 110 -3 107 101 107 67 0 69 1 69
25 0 25 -1 25 -89 25 -72 0 -93 -4 -112 -19z"/>
<path d="M1470 346 c0 -104 3 -125 16 -130 42 -16 44 -12 44 124 l0 130 -30 0
-30 0 0 -124z"/>
<path d="M1690 445 c0 -24 2 -25 70 -25 68 0 70 1 70 25 0 24 -2 25 -70 25
-68 0 -70 -1 -70 -25z"/>
<path d="M1880 372 c0 -103 9 -130 52 -153 16 -8 22 -8 29 2 5 8 3 17 -4 21
-9 6 -9 8 0 8 6 0 15 -5 18 -10 4 -6 11 -8 16 -5 5 4 9 2 9 -4 0 -5 -6 -12
-12 -14 -7 -3 11 -6 40 -6 51 -1 52 -1 52 29 l0 30 -70 0 -70 0 0 100 0 100
-30 0 -30 0 0 -98z m187 -148 c-3 -3 -12 -4 -19 -1 -8 3 -5 6 6 6 11 1 17 -2
13 -5z"/>
<path d="M2114 448 c3 -13 6 -75 6 -138 0 -73 4 -110 9 -101 8 12 12 12 25 2
14 -12 16 0 16 123 l0 136 -31 0 c-28 0 -31 -3 -25 -22z"/>
</g>
</svg>
